<?xml version="1.0" encoding="UTF-8" standalone="no"?>
<!-- Created with Inkscape (http://www.inkscape.org/) -->

<svg
   width="46.850677mm"
   height="28.260065mm"
   viewBox="0 0 46.850677 28.260065"
   version="1.1"
   id="svg5"
   sodipodi:docname="GMTK Challange.svg"
   inkscape:version="1.2.1 (9c6d41e410, 2022-07-14)"
   xmlns:inkscape="http://www.inkscape.org/namespaces/inkscape"
   xmlns:sodipodi="http://sodipodi.sourceforge.net/DTD/sodipodi-0.dtd"
   xmlns="http://www.w3.org/2000/svg"
   xmlns:svg="http://www.w3.org/2000/svg">
  <sodipodi:namedview
     id="namedview7"
     pagecolor="#ffffff"
     bordercolor="#000000"
     borderopacity="0.25"
     inkscape:showpageshadow="2"
     inkscape:pageopacity="0.0"
     inkscape:pagecheckerboard="0"
     inkscape:deskcolor="#d1d1d1"
     inkscape:document-units="mm"
     showgrid="false"
     inkscape:zoom="1.1893044"
     inkscape:cx="512.48444"
     inkscape:cy="717.64638"
     inkscape:window-width="1920"
     inkscape:window-height="1001"
     inkscape:window-x="-9"
     inkscape:window-y="-9"
     inkscape:window-maximized="1"
     inkscape:current-layer="layer1" />
  <defs
     id="defs2" />
  <g
     inkscape:label="Layer 1"
     inkscape:groupmode="layer"
     id="layer1"
     transform="translate(-56.952081,-13.207928)">
    <path
       id="path893"
       style="fill:#712835;fill-opacity:1;stroke-width:0.223485"
       d="m 61.768379,13.20794 a 13.780012,6.2372993 30.265857 0 0 -4.8163,3.450436 13.780012,6.2372993 30.265857 0 0 9.087805,10.679451 6.2372993,13.780012 59.734144 0 0 -9.087805,10.679968 6.2372993,13.780012 59.734144 0 0 12.309708,1.642794 A 6.2372993,13.780012 59.734144 0 0 74.35414,36.82562 18.881384,11.457152 0 0 0 84.921104,38.795009 18.881384,11.457152 0 0 0 103.80276,27.337827 18.881384,11.457152 0 0 0 84.921104,15.880645 18.881384,11.457152 0 0 0 74.34984,17.851584 13.780012,6.2372993 30.265857 0 0 69.261787,15.015582 13.780012,6.2372993 30.265857 0 0 61.768379,13.20794 Z" />
  </g>
</svg>
