<?xml version="1.0" encoding="UTF-8" standalone="no"?>
<!-- Created with Inkscape (http://www.inkscape.org/) -->

<svg
   width="191.53009mm"
   height="37.124863mm"
   viewBox="0 0 191.53009 37.124863"
   version="1.1"
   id="svg5"
   sodipodi:docname="Cat Food Sprite.svg"
   inkscape:version="1.2.1 (9c6d41e410, 2022-07-14)"
   xmlns:inkscape="http://www.inkscape.org/namespaces/inkscape"
   xmlns:sodipodi="http://sodipodi.sourceforge.net/DTD/sodipodi-0.dtd"
   xmlns="http://www.w3.org/2000/svg"
   xmlns:svg="http://www.w3.org/2000/svg">
  <sodipodi:namedview
     id="namedview182"
     pagecolor="#ffffff"
     bordercolor="#000000"
     borderopacity="0.25"
     inkscape:showpageshadow="2"
     inkscape:pageopacity="0.0"
     inkscape:pagecheckerboard="0"
     inkscape:deskcolor="#d1d1d1"
     inkscape:document-units="mm"
     showgrid="true"
     inkscape:zoom="1.2629948"
     inkscape:cx="361.44249"
     inkscape:cy="131.82952"
     inkscape:window-width="1920"
     inkscape:window-height="1001"
     inkscape:window-x="-9"
     inkscape:window-y="-9"
     inkscape:window-maximized="1"
     inkscape:current-layer="layer1" />
  <defs
     id="defs2" />
  <g
     id="layer1"
     transform="translate(-9.7989965,-49.391103)">
    <path
       style="fill:#d29c8a;fill-opacity:1;stroke-width:0.29975"
       id="path631"
       d="m 135.30074,73.606087 c -2.63482,4.713723 -7.14403,13.312991 -12.53008,12.92334 -6.16025,-0.445649 -11.08673,-9.554785 -14.24895,-14.860227 -2.7648,-4.638675 -7.95737,-12.843398 -4.9269,-17.313039 3.46608,-5.112096 13.81805,-4.823982 19.99381,-4.90982 5.39961,-0.075 15.1014,-0.469592 17.45698,4.389687 2.69418,5.557758 -2.73132,14.378779 -5.74486,19.770059 z" />
    <path
       style="fill:#a62654;fill-opacity:1;stroke-width:0.325048"
       id="path631-5"
       d="m 173.82448,67.656335 c -3.12028,5.142723 -0.76916,19.528404 -6.74949,18.880803 -6.3692,-0.689712 -3.47918,-14.705449 -6.56092,-20.321973 -2.89359,-5.273591 -16.52752,-10.430311 -12.97653,-15.285612 3.78191,-5.171036 14.47489,4.339655 20.87982,4.479041 6.01385,0.130816 17.29667,-9.098092 19.72599,-3.595189 2.58729,5.86076 -10.9957,10.365792 -14.31887,15.84293 z" />
    <path
       id="path893"
       style="fill:#712835;fill-opacity:1;stroke-width:0.194834"
       d="m 16.199961,54.6981 a 11.660733,5.6021218 36.396289 0 0 -3.895844,3.242038 11.660733,5.6021218 36.396289 0 0 7.351009,10.034441 5.6021218,11.660733 53.603712 0 0 -7.351009,10.034927 5.6021218,11.660733 53.603712 0 0 9.957165,1.543573 5.6021218,11.660733 53.603712 0 0 4.119139,-2.663744 15.27291,10.765171 0 0 0 8.547483,1.850443 A 15.27291,10.765171 0 0 0 50.20103,67.974579 15.27291,10.765171 0 0 0 34.927904,57.20938 15.27291,10.765171 0 0 0 26.376943,59.06128 11.660733,5.6021218 36.396289 0 0 22.261282,56.396565 11.660733,5.6021218 36.396289 0 0 16.199961,54.6981 Z" />
    <path
       id="path5581"
       style="fill:#df426e;fill-opacity:1;stroke-width:0.245"
       d="M 76.73823,49.412275 A 18.948303,18.5625 0 0 0 57.79003,67.974448 18.948303,18.5625 0 0 0 76.73823,86.537138 18.948303,18.5625 0 0 0 95.686941,67.974448 18.948303,18.5625 0 0 0 76.73823,49.412275 Z m 0,10.80709 a 7.9162521,7.7550707 0 0 1 7.91631,7.755083 7.9162521,7.7550707 0 0 1 -7.91631,7.75508 7.9162521,7.7550707 0 0 1 -7.9158,-7.75508 7.9162521,7.7550707 0 0 1 7.9158,-7.755083 z" />
  </g>
</svg>
