<?xml version="1.0" encoding="UTF-8" standalone="no"?>
<!-- Created with Inkscape (http://www.inkscape.org/) -->

<svg
   width="28.142319mm"
   height="28.142324mm"
   viewBox="0 0 28.142319 28.142324"
   version="1.1"
   id="svg5"
   sodipodi:docname="GMTK Challange.svg"
   inkscape:version="1.2.1 (9c6d41e410, 2022-07-14)"
   xmlns:inkscape="http://www.inkscape.org/namespaces/inkscape"
   xmlns:sodipodi="http://sodipodi.sourceforge.net/DTD/sodipodi-0.dtd"
   xmlns="http://www.w3.org/2000/svg"
   xmlns:svg="http://www.w3.org/2000/svg">
  <sodipodi:namedview
     id="namedview7"
     pagecolor="#ffffff"
     bordercolor="#000000"
     borderopacity="0.25"
     inkscape:showpageshadow="2"
     inkscape:pageopacity="0.0"
     inkscape:pagecheckerboard="0"
     inkscape:deskcolor="#d1d1d1"
     inkscape:document-units="mm"
     showgrid="false"
     inkscape:zoom="1.1893044"
     inkscape:cx="512.48444"
     inkscape:cy="717.64638"
     inkscape:window-width="1920"
     inkscape:window-height="1001"
     inkscape:window-x="-9"
     inkscape:window-y="-9"
     inkscape:window-maximized="1"
     inkscape:current-layer="layer1" />
  <defs
     id="defs2" />
  <g
     inkscape:label="Layer 1"
     inkscape:groupmode="layer"
     id="layer1"
     transform="translate(-165.29444,-13.207928)">
    <g
       id="g18383"
       inkscape:export-filename="SVG\g18383.svg"
       inkscape:export-xdpi="96"
       inkscape:export-ydpi="96">
      <circle
         style="fill:#51b341;fill-opacity:1;stroke-width:0.245"
         id="path1051"
         cx="179.36562"
         cy="27.279091"
         r="14.071162" />
      <ellipse
         style="fill:#9bd547;fill-opacity:1;stroke-width:0.208181"
         id="path1051-0"
         cx="179.36562"
         cy="27.279091"
         rx="11.790855"
         ry="12.124558" />
      <path
         id="path1051-0-7"
         style="fill:#51b341;fill-opacity:1;stroke-width:0.176221"
         d="m 179.76525,16.999128 v 9.989571 l 7.87911,5.998601 a 9.9554863,10.289189 0 0 0 1.6769,-5.708179 9.9554863,10.289189 0 0 0 -9.55601,-10.279993 z m -0.79891,0.0062 a 9.9554863,10.289189 0 0 0 -9.55601,10.273792 9.9554863,10.289189 0 0 0 1.73736,5.806881 l 7.81865,-5.952609 z m -2.27325,2.371949 c 0.72763,0.03281 1.17504,2.698322 0.82269,3.462837 -0.57245,-0.59192 -1.58842,-3.319062 -0.894,-3.45767 0.024,-0.0046 0.0478,-0.0062 0.0713,-0.0052 z m 5.37745,0.0052 c 0.0412,-0.0016 0.0811,0.0077 0.11989,0.02894 0.6833,0.382354 -0.75147,2.852306 -1.53737,3.223059 -0.0544,-0.770066 0.7989,-3.228064 1.41748,-3.251999 z m -9.47539,3.438033 c 0.75276,-0.04227 2.44938,1.459603 2.64945,2.193148 -0.819,-0.08547 -3.34966,-1.521232 -2.9068,-2.073775 0.0619,-0.07582 0.14981,-0.113334 0.25735,-0.119373 z m 13.4891,0.02687 c 0.17835,-0.0069 0.30578,0.04165 0.35398,0.165365 0.27766,0.732115 -2.40959,1.702197 -3.24993,1.481046 0.39286,-0.541567 2.12311,-1.61639 2.89595,-1.646411 z m -1.64228,4.654496 c 1.11354,0.0014 3.12638,0.434046 2.93471,0.999939 -0.25789,0.739314 -2.93955,-0.244888 -3.44114,-0.954463 0.12482,-0.03122 0.30022,-0.04574 0.50643,-0.04548 z m -5.00796,0.133326 0.007,0.03566 -7.87755,5.99705 a 9.9554863,10.289189 0 0 0 7.80262,3.900537 9.9554863,10.289189 0 0 0 7.86929,-3.994071 z m -6.27972,0.159163 c 0.71306,0.0047 1.43582,0.128019 1.74821,0.344682 -0.68233,0.460972 -3.54458,0.988024 -3.5605,0.280086 -0.006,-0.440398 0.89549,-0.630762 1.81229,-0.624768 z m 9.39064,2.572453 c 0.74038,0.360431 2.62775,2.575736 2.02262,2.943489 -0.67278,0.400579 -2.09448,-2.077507 -2.02262,-2.943489 z m -5.89628,0.386539 c -0.22639,0.791721 -2.07988,3.034772 -2.54713,2.50269 -0.51132,-0.592996 1.68182,-2.423089 2.54713,-2.50269 z m 3.01842,0.879533 c 0.33548,0.752015 0.35732,3.662079 -0.34262,3.554822 -0.77286,-0.125593 -0.26908,-2.937635 0.34262,-3.554822 z" />
    </g>
  </g>
</svg>
